<svg xmlns="http://www.w3.org/2000/svg" xmlns:xlink="http://www.w3.org/1999/xlink" version="1.1" width="256" height="256" viewBox="0 0 256 256" xml:space="preserve">

<defs>
</defs>
<g style="stroke: none; stroke-width: 0; stroke-dasharray: none; stroke-linecap: butt; stroke-linejoin: miter; stroke-miterlimit: 10; fill: none; fill-rule: nonzero; opacity: 1;" transform="translate(1.4065934065934016 1.4065934065934016) scale(2.81 2.81)" >
	<path d="M 87.333 6.429 H 2.667 C 1.194 6.429 0 7.623 0 9.096 V 62.95 c 0 1.473 1.194 2.667 2.667 2.667 h 24.672 l -7.096 17.191 l 1.849 0.764 l 4.436 -10.745 h 36.947 l 4.435 10.745 l 1.85 -0.764 l -7.096 -17.191 h 24.671 c 1.473 0 2.667 -1.194 2.667 -2.667 V 9.096 C 90 7.623 88.806 6.429 87.333 6.429 z M 62.648 70.826 H 27.352 l 2.151 -5.21 h 30.995 L 62.648 70.826 z M 88 62.95 c 0 0.368 -0.299 0.667 -0.667 0.667 H 2.667 C 2.299 63.616 2 63.317 2 62.95 V 9.096 c 0 -0.368 0.299 -0.667 0.667 -0.667 h 84.667 C 87.701 8.429 88 8.728 88 9.096 V 62.95 z" style="stroke: none; stroke-width: 1; stroke-dasharray: none; stroke-linecap: butt; stroke-linejoin: miter; stroke-miterlimit: 10; fill: rgb(0,0,0); fill-rule: nonzero; opacity: 1;" transform=" matrix(1 0 0 1 0 0) " stroke-linecap="round" />
	<path d="M 69.625 21.417 c -3.088 0 -5.592 2.504 -5.592 5.592 c 0 1.157 0.351 2.231 0.953 3.123 l -7.028 6.846 c -0.949 -0.743 -2.142 -1.19 -3.441 -1.19 c -1.802 0 -3.4 0.856 -4.423 2.179 c 0 0 0 0 0 0 l -9.365 -5.503 c 0.152 -0.508 0.236 -1.045 0.236 -1.602 c 0 -3.088 -2.504 -5.592 -5.592 -5.592 c -3.089 0 -5.592 2.504 -5.592 5.592 c 0 1.101 0.322 2.124 0.872 2.989 l -7.037 6.854 c -0.915 -0.652 -2.031 -1.04 -3.24 -1.04 c -3.088 0 -5.592 2.504 -5.592 5.592 s 2.504 5.592 5.592 5.592 c 3.089 0 5.592 -2.504 5.592 -5.592 c 0 -1.157 -0.351 -2.231 -0.953 -3.123 l 0 0 l 6.994 -6.813 c 0.937 0.708 2.099 1.133 3.364 1.133 c 1.815 0 3.422 -0.868 4.444 -2.207 c 0 0 0 0 0 0 l 9.353 5.496 c -0.158 0.518 -0.245 1.067 -0.245 1.637 c 0 3.088 2.504 5.592 5.592 5.592 s 5.592 -2.504 5.592 -5.592 c 0 -1.066 -0.304 -2.058 -0.821 -2.906 l 7.097 -6.913 c 0.915 0.652 2.031 1.04 3.241 1.04 c 3.088 0 5.592 -2.504 5.592 -5.592 S 72.713 21.417 69.625 21.417 z M 20.375 48.849 c -1.981 0 -3.592 -1.611 -3.592 -3.592 s 1.611 -3.592 3.592 -3.592 s 3.592 1.611 3.592 3.592 S 22.356 48.849 20.375 48.849 z M 24.376 41.354 c 0.003 0.003 0.005 0.006 0.008 0.009 C 24.381 41.36 24.379 41.357 24.376 41.354 z M 31.262 34.644 c 0.002 0.002 0.004 0.004 0.006 0.006 C 31.266 34.648 31.264 34.646 31.262 34.644 z M 35.372 34.454 c -1.981 0 -3.592 -1.611 -3.592 -3.592 s 1.611 -3.592 3.592 -3.592 s 3.592 1.611 3.592 3.592 S 37.353 34.454 35.372 34.454 z M 40.355 33.392 c -0.002 0.005 -0.004 0.01 -0.007 0.014 C 40.35 33.402 40.352 33.397 40.355 33.392 z M 49.556 38.803 c -0.003 0.005 -0.004 0.01 -0.007 0.014 C 49.552 38.813 49.554 38.808 49.556 38.803 z M 54.516 44.971 c -1.981 0 -3.592 -1.611 -3.592 -3.592 c 0 -1.981 1.611 -3.592 3.592 -3.592 s 3.592 1.611 3.592 3.592 C 58.109 43.36 56.497 44.971 54.516 44.971 z M 58.686 37.662 c 0.002 0.002 0.004 0.004 0.006 0.006 C 58.69 37.666 58.688 37.664 58.686 37.662 z M 69.625 30.601 c -1.981 0 -3.592 -1.611 -3.592 -3.592 s 1.611 -3.592 3.592 -3.592 s 3.592 1.611 3.592 3.592 S 71.606 30.601 69.625 30.601 z" style="stroke: none; stroke-width: 1; stroke-dasharray: none; stroke-linecap: butt; stroke-linejoin: miter; stroke-miterlimit: 10; fill: rgb(0,0,0); fill-rule: nonzero; opacity: 1;" transform=" matrix(1 0 0 1 0 0) " stroke-linecap="round" />
</g>
</svg>