<svg xmlns="http://www.w3.org/2000/svg" enable-background="new 0 0 24 24" viewBox="0 0 24 24" id="correct">
  <path d="M12,3c-4.962,0-9,4.037-9,9s4.038,9,9,9s9-4.037,9-9S16.962,3,12,3z M12,20c-4.411,0-8-3.589-8-8s3.589-8,8-8s8,3.589,8,8
	S16.411,20,12,20z"></path>
  <path d="M16.021,8.996l-4.947,4.947l-3.096-3.096c-0.195-0.195-0.512-0.195-0.707,0s-0.195,0.512,0,0.707l3.45,3.449
	c0.098,0.098,0.226,0.146,0.354,0.146s0.256-0.049,0.354-0.146l5.3-5.301c0.195-0.195,0.195-0.512,0-0.707
	S16.217,8.801,16.021,8.996z"></path>
</svg>
