<svg xmlns="http://www.w3.org/2000/svg" viewBox="0 0 64 64" id="robot">
  <rect width="2" height="2" x="29" y="7"></rect>
  <rect width="2" height="2" x="35" y="7"></rect>
  <path d="M37,11H29a1,1,0,0,0-1,1,5,5,0,0,0,10,0A1,1,0,0,0,37,11Zm-4,4a3.006,3.006,0,0,1-2.829-2h5.658A3.006,3.006,0,0,1,33,15Z"></path>
  <path d="M6.105,7.553A1,1,0,0,0,6,8v3a1,1,0,0,0-1,1v4a1,1,0,0,0,1,1H7v5a7.008,7.008,0,0,0,7,7h7V42a3,3,0,0,0,1.869,2.775L21.093,56.316A6.006,6.006,0,0,0,17,62a1,1,0,0,0,1,1H28a1,1,0,0,0,1-1V57.076L30.858,45h4.284L37,57.076V62a1,1,0,0,0,1,1H48a1,1,0,0,0,1-1,6.006,6.006,0,0,0-4.093-5.684L43.131,44.775A3,3,0,0,0,45,42V28h4a1,1,0,0,1,1,1v4H49a1,1,0,0,0-1,1v4a1,1,0,0,0,1,1v3a1,1,0,0,0,.1.447l1,2,1.79-.894L51,41.764V39h5v2.764l-.9,1.789,1.79.894,1-2A1,1,0,0,0,58,42V39a1,1,0,0,0,1-1V34a1,1,0,0,0-1-1H57V28a7.008,7.008,0,0,0-7-7H44.816A3,3,0,0,0,44,19.78V17h1a3,3,0,0,0,3-3V10a3,3,0,0,0-3-3H43.075A11.094,11.094,0,0,0,33,1,11.094,11.094,0,0,0,22.925,7H21a3,3,0,0,0-3,3v4a3,3,0,0,0,3,3h1v2.78A2.985,2.985,0,0,0,21,22H15a1,1,0,0,1-1-1V17h1a1,1,0,0,0,1-1V12a1,1,0,0,0-1-1V8a1,1,0,0,0-.105-.447l-1-2-1.79.894L13,8.236V11H8V8.236L8.9,6.447l-1.79-.894ZM9,22h3.184a3.005,3.005,0,0,0,.58.981L10.7,25.729A4.966,4.966,0,0,1,9,22Zm15-1h4v3a1,1,0,0,0,1,1h8a1,1,0,0,0,1-1V21h4a1,1,0,0,1,1,1V39H41V28a1,1,0,0,0-1-1H27a1,1,0,0,0-1,1V39H23V22A1,1,0,0,1,24,21Zm6,0h6v2H30ZM42,43H24a1,1,0,0,1-1-1V41H43v1A1,1,0,0,1,42,43ZM39,31H28V29H39ZM28,33H39v2H28Zm0,4H39v2H28Zm-.858,19H23.165l.462-3H27.6Zm.769-5H23.935l.307-2h3.977ZM27,61H19.126A4.008,4.008,0,0,1,23,58h4Zm1.527-14H24.55l.308-2h3.976Zm12.615-2,.308,2H37.473l-.307-2ZM38.4,53h3.977l.462,3H38.858Zm-.307-2-.308-2h3.977l.307,2Zm8.785,10H39V58h4A4.008,4.008,0,0,1,46.874,61ZM45,26V23h4v3Zm5,9h7v2H50Zm2-2V30h3v3Zm3-5H51.816A3,3,0,0,0,51,26.78V23.1A5.009,5.009,0,0,1,55,28ZM45,9a1,1,0,0,1,1,1v4a1,1,0,0,1-1,1H44V11a9.122,9.122,0,0,0-.222-2ZM21,15a1,1,0,0,1-1-1V10a1,1,0,0,1,1-1h1.222A9.122,9.122,0,0,0,22,11v4Zm3-4c0-4.411,4.038-8,9-8s9,3.589,9,8v8H24ZM21,27H18V24h3Zm-5-3v3H14a4.943,4.943,0,0,1-1.548-.27l2.083-2.777A2.979,2.979,0,0,0,15,24Zm-4-4H9V17h3Zm2-5H7V13h7Z"></path>
</svg>
